<?xml version="1.0" encoding="utf-8"?>
<!-- Generator: Adobe Illustrator 27.5.0, SVG Export Plug-In . SVG Version: 6.00 Build 0)  -->
<svg version="1.1" id="Layer_1" xmlns="http://www.w3.org/2000/svg" xmlns:xlink="http://www.w3.org/1999/xlink" x="0px" y="0px"
	 viewBox="0 0 8000 5000" style="enable-background:new 0 0 8000 5000;" xml:space="preserve">
<g>
	<rect x="0.728" y="0.455" style="fill-rule:evenodd;clip-rule:evenodd;fill:#01052D;" width="7999.274" height="4999.545"/>
	<g>
		<defs>
			<path id="SVGID_1_" d="M0.728,2142.725c0,0,1384.884-71.025,1789.759-1106.648C2195.361,0.455,3140.06,989.187,3868.827,0.455
				H0.728V2142.725z"/>
		</defs>
		<clipPath id="SVGID_00000056392620548648100980000016098202760669884350_">
			<use xlink:href="#SVGID_1_"  style="overflow:visible;"/>
		</clipPath>
		
			<linearGradient id="SVGID_00000123443570390191505800000007994450175043896227_" gradientUnits="userSpaceOnUse" x1="1934.7692" y1="1071.5806" x2="1048.3724" y2="89.4975">
			<stop  offset="0" style="stop-color:#021B8D"/>
			<stop  offset="1" style="stop-color:#020C6A"/>
		</linearGradient>
		
			<rect x="0.728" y="0.455" style="clip-path:url(#SVGID_00000056392620548648100980000016098202760669884350_);fill:url(#SVGID_00000123443570390191505800000007994450175043896227_);" width="3868.1" height="2142.271"/>
	</g>
	<g>
		<defs>
			<path id="SVGID_00000098181585412392219700000000828762630921179778_" d="M0.728,3161.673
				c3175.892,307.421,1725.545-2373.163,3274.25-2024.357c749.011,168.696,856.974-168.389,910.957-1136.861h-317.106
				c-728.768,988.732-1673.467,0-2078.341,1035.622C1385.612,2071.7,0.728,2142.725,0.728,2142.725V3161.673z"/>
		</defs>
		<clipPath id="SVGID_00000055689919523404345830000005529520590835174052_">
			<use xlink:href="#SVGID_00000098181585412392219700000000828762630921179778_"  style="overflow:visible;"/>
		</clipPath>
		
			<linearGradient id="SVGID_00000140693447051795569660000015240464473468354977_" gradientUnits="userSpaceOnUse" x1="2556.2578" y1="2901.9531" x2="1722.6324" y2="800.1323">
			<stop  offset="0" style="stop-color:#021B8D"/>
			<stop  offset="1" style="stop-color:#01052D"/>
		</linearGradient>
		
			<rect x="0.728" y="0.455" style="clip-path:url(#SVGID_00000055689919523404345830000005529520590835174052_);fill:url(#SVGID_00000140693447051795569660000015240464473468354977_);" width="4185.206" height="3468.639"/>
	</g>
	<g>
		<defs>
			<path id="SVGID_00000117666757550440045410000000848477330361979541_" d="M8000.001,2857.729
				c0,0-1384.884,71.025-1789.759,1106.647C5805.368,5000,4860.672,4011.267,4131.905,5000h3868.097V2857.729z"/>
		</defs>
		<clipPath id="SVGID_00000043420919727953253480000014140881944198355343_">
			<use xlink:href="#SVGID_00000117666757550440045410000000848477330361979541_"  style="overflow:visible;"/>
		</clipPath>
		
			<linearGradient id="SVGID_00000143595144457995245110000008074723387912857006_" gradientUnits="userSpaceOnUse" x1="6065.9868" y1="3928.9016" x2="6952.3853" y2="4910.9834">
			<stop  offset="0" style="stop-color:#021B8D"/>
			<stop  offset="1" style="stop-color:#020C6A"/>
		</linearGradient>
		
			<rect x="4131.905" y="2857.729" style="clip-path:url(#SVGID_00000043420919727953253480000014140881944198355343_);fill:url(#SVGID_00000143595144457995245110000008074723387912857006_);" width="3868.097" height="2142.271"/>
	</g>
	<g>
		<defs>
			<path id="SVGID_00000108992819814896062690000017745938905617587853_" d="M8000.001,1838.78
				c-3175.889-307.421-1725.542,2373.165-3274.25,2024.357c-749.011-168.695-856.97,168.39-910.953,1136.863h317.106
				c728.768-988.733,1673.463,0,2078.338-1035.624c404.875-1035.622,1789.759-1106.647,1789.759-1106.647V1838.78z"/>
		</defs>
		<clipPath id="SVGID_00000096056873548548242260000005240969326605180557_">
			<use xlink:href="#SVGID_00000108992819814896062690000017745938905617587853_"  style="overflow:visible;"/>
		</clipPath>
		
			<linearGradient id="SVGID_00000057869217169201507420000018426740787961437100_" gradientUnits="userSpaceOnUse" x1="5444.4761" y1="2098.4377" x2="6278.1045" y2="4200.394">
			<stop  offset="0" style="stop-color:#021B8D"/>
			<stop  offset="1" style="stop-color:#01052D"/>
		</linearGradient>
		
			<rect x="3814.799" y="1531.359" style="clip-path:url(#SVGID_00000096056873548548242260000005240969326605180557_);fill:url(#SVGID_00000057869217169201507420000018426740787961437100_);" width="4185.203" height="3468.641"/>
	</g>
	<g>
		<defs>
			<path id="SVGID_00000173841700767173270510000007487817448939523213_" d="M1816.469,4267.066
				c-662.426,315.474-463.335-811.059-973.855-1098.867c-237.167,25.103-515.021,25.115-841.887-6.526V5000h3814.071
				c16.784-301.167,38.794-541.274,83.669-724.105c-10.56-11.707-21.321-23.465-32.29-35.275
				C3045.303,3356.588,2292.377,4040.418,1816.469,4267.066"/>
		</defs>
		<clipPath id="SVGID_00000096017159708639598230000012081400690859076541_">
			<use xlink:href="#SVGID_00000173841700767173270510000007487817448939523213_"  style="overflow:visible;"/>
		</clipPath>
		
			<linearGradient id="SVGID_00000031196531189479766870000013744709388691595435_" gradientUnits="userSpaceOnUse" x1="3870.6563" y1="2353.6982" x2="643.3082" y2="5255.2632">
			<stop  offset="0" style="stop-color:#021B8D"/>
			<stop  offset="1" style="stop-color:#01052D"/>
		</linearGradient>
		
			<rect x="0.728" y="3161.673" style="clip-path:url(#SVGID_00000096017159708639598230000012081400690859076541_);fill:url(#SVGID_00000031196531189479766870000013744709388691595435_);" width="3897.74" height="1838.327"/>
	</g>
	<g>
		<defs>
			<path id="SVGID_00000102522103372039654980000004713591772952839864_" d="M6184.26,733.386
				c662.426-315.474,463.338,811.061,973.858,1098.867c237.163-25.103,515.021-25.114,841.883,6.526V0.455H4185.934
				c-16.787,301.166-38.797,541.273-83.672,724.103c10.563,11.707,21.324,23.467,32.292,35.276
				C4955.429,1643.865,5708.355,960.037,6184.26,733.386"/>
		</defs>
		<clipPath id="SVGID_00000021096840810896426120000018205482403792158398_">
			<use xlink:href="#SVGID_00000102522103372039654980000004713591772952839864_"  style="overflow:visible;"/>
		</clipPath>
		
			<linearGradient id="SVGID_00000075885214486936140420000015303707963472564123_" gradientUnits="userSpaceOnUse" x1="4130.061" y1="2646.7664" x2="7357.4082" y2="-254.7981">
			<stop  offset="0" style="stop-color:#021B8D"/>
			<stop  offset="1" style="stop-color:#01052D"/>
		</linearGradient>
		
			<rect x="4102.261" y="0.455" style="clip-path:url(#SVGID_00000021096840810896426120000018205482403792158398_);fill:url(#SVGID_00000075885214486936140420000015303707963472564123_);" width="3897.74" height="1838.326"/>
	</g>
</g>
</svg>
